<?xml version="1.0" encoding="UTF-8"?>
<svg xmlns="http://www.w3.org/2000/svg" width="81.04" height="35" viewBox="0 0 81.04 35">
  <g id="a" data-name="Layer 1"/>
  <g id="b" data-name="Layer 2">
    <g id="c" data-name="Layer 1">
      <g>
        <path d="M16.61,17.74l-3.35,.21c-.07-1.86-.06-3.04,.02-3.57-.48-.13-1.07-.18-1.77-.13-.74,.05-1.47,.22-2.2,.46-1.38,.45-3.19,2.31-3.48,5.21-.22,2.17,.05,3.57,.88,4.29,.86,.68,2.01,.97,3.49,.87,2.37-.15,4.33-.84,5.86-2.08l-.57,4.95c-.72,.45-1.79,.84-3.17,1.18-1.35,.33-2.55,.53-3.52,.59C4.75,29.98-.71,28.13,.08,20.33c.48-5.71,4.36-8.88,7.7-9.95,1.11-.4,2.27-.63,3.4-.7,1.13-.07,2.31,.02,3.53,.26,1.23,.25,2.11,.64,2.65,1.13l-.74,6.66Z" style="fill: #fff;"/>
        <path d="M18.12,28.8l.38-3.52c1-.27,1.73-.44,2.16-.5l2.08-19.09c.07-.78-.11-1.21-.62-1.22l-1.33-.08,.38-3.47,7.45-.92c.19,.6,.23,1.2,.15,1.86l-2.34,21.3c-.07,.86,.15,1.29,.67,1.38l1.3,.16-.38,3.47-9.89,.63Z" style="fill: #fff;"/>
        <path d="M48.34,21.56c-.1,1.02,.11,1.17,.62,1.26l1.37,.03-.38,3.47-7.45,.92c-.19-.64-.27-1.24-.19-1.86l.31-2.7-1.59,3.47c-1.07,1.12-2.48,1.74-4.23,1.85-2.61,.17-6.95-1.26-6.16-9.11,.38-3.47,1.78-6.24,3.37-7.76,.81-.78,1.71-1.41,2.74-1.92,2.09-1.07,3.6-1.32,5.27-1.43,2.45-.16,5.07-.2,7.85-.09l-1.53,13.86Zm-5.27-3.16l.66-6.05c-.51,0-1.33,0-2.38,.07-1.13,.07-2.2,.55-3.16,1.46-.93,.87-1.54,2.41-1.76,4.58-.4,3.76,.33,5.01,2.48,4.88,1.44-.09,3.07-1.58,4.16-4.93Z" style="fill: #fff;"/>
        <path d="M65.81,20.69l-1.81,3.85c-.78,.62-2.01,1.1-3.63,1.41-.31,.02-1.05,.11-1.24,.12-2.81,.1-6.43-1.09-5.81-7.06l.77-6.87c.07-.74-.14-1.13-.65-1.14l-1.37-.08,.38-3.47,7.45-.92c.23,.55,.26,1.16,.19,1.86l-.88,8.21c-.23,2.08-.15,3.42,.24,4,.39,.58,1.1,.82,2.23,.75,1.91-.12,3.11-1.01,4.53-4.06l.63-5.84c.07-.82-.11-1.25-.62-1.26l-1.37-.08,.38-3.47,7.45-.92c.23,.55,.26,1.16,.19,1.86l-2.06,18.84c-.58,5.39-4.13,8.1-11.03,8.53-.97,.06-2.15,.06-3.52,.02-1.33-.04-2.2-.14-2.56-.32l.53-4.99c.94,.67,2.79,.92,5.55,.74,3.7-.24,5.2-1.95,5.6-5.75l.43-3.96Z" style="fill: #fff;"/>
        <path d="M77.87,17.45c1.05-.07,1.85,.21,2.43,.78,.62,.57,.83,1.45,.71,2.72-.12,1.27-.57,2.23-1.31,2.88-.74,.66-1.62,1-2.67,1.06-2.06,.13-3.42-1-3.1-3.5,.2-2.49,1.81-3.81,3.95-3.95Z" style="fill: #fff;"/>
      </g>
    </g>
  </g>
</svg>